<?xml version="1.0" encoding="utf-8"?>
<!-- Generator: Adobe Illustrator 16.0.0, SVG Export Plug-In . SVG Version: 6.00 Build 0)  -->
<!DOCTYPE svg PUBLIC "-//W3C//DTD SVG 1.1//EN" "http://www.w3.org/Graphics/SVG/1.1/DTD/svg11.dtd">
<svg version="1.1" id="Ebene_1" xmlns="http://www.w3.org/2000/svg" xmlns:xlink="http://www.w3.org/1999/xlink" x="0px" y="0px"
	 width="12px" height="45px" viewBox="0 0 12 45" enable-background="new 0 0 12 45" xml:space="preserve">
<g>
	<path fill="#FFFFFF" d="M8.164,32.797h2.444v2.305H8.164V32.797z M8.729,25.369H6.706v2.156c0,0.779,0.084,1.289,0.253,1.527
		c0.169,0.24,0.436,0.359,0.804,0.359c0.369,0,0.619-0.119,0.759-0.359c0.138-0.238,0.208-0.748,0.208-1.527V25.369z M4.965,36.004
		h2.023v4.551H4.965V36.004z M5.911,44.178l-4.519-1.113v-1.85l4.519,1.035l4.697-1.035v1.85L5.911,44.178z M1.392,32.797h2.444
		v2.305H1.392V32.797z M9.999,30.801c-0.407,0.766-1.152,1.15-2.236,1.15c-1.145,0-1.92-0.383-2.326-1.148
		c-0.408-0.768-0.611-1.768-0.611-3v-2.434H1.392v-2.586h9.216v5.012C10.608,29.031,10.405,30.031,9.999,30.801 M1.392,21.042
		v-2.586h3.438v-4.656H1.392v-2.586h9.216v2.586H6.944v4.656h3.664v2.586H1.392z M8.493,9.71v-6.3H6.942v6.3H4.825v-6.3H1.392V0.823
		h9.216V9.71H8.493z"/>
</g>
</svg>
